<?xml version="1.0" encoding="utf-8"?>
<!-- Generator: Adobe Illustrator 26.0.3, SVG Export Plug-In . SVG Version: 6.00 Build 0)  -->
<svg version="1.0" id="katman_1" xmlns="http://www.w3.org/2000/svg" xmlns:xlink="http://www.w3.org/1999/xlink" x="0px" y="0px"
	 viewBox="0 0 800 600" style="enable-background:new 0 0 800 600;" xml:space="preserve">
<style type="text/css">
	.st0{fill:#1D1D1B;}
	.st1{fill:#00FFB9;}
	.st2{fill:#00DAFF;}
</style>
<path class="st0" d="M115.2,274.5c10.5,0,19.1-8.6,19.1-19.1c0-10.6-8.5-19.1-19.1-19.1s-19.1,8.6-19.1,19.1
	C96.1,265.9,104.7,274.5,115.2,274.5z"/>
<path class="st1" d="M202.5,274.5h-26.4c-3.2,0-5.9-2.7-5.9-5.9v-26.5c0-3.3,2.7-5.9,5.9-5.9h26.4c3.2,0,5.9,2.7,5.9,5.9v26.5
	C208.4,271.9,205.8,274.5,202.5,274.5z"/>
<path class="st2" d="M134.3,290.8h-1.1h-29c-4.5,0-8.1,3.6-8.1,8.1v30.2v30.1c0,4.5,3.6,8.1,8.1,8.1h22c4.5,0,8.1-3.6,8.1-8.1v-22
	c0-4.5,3.6-8.1,8.1-8.1h20.9c4.5,0,8.1-3.6,8.1-8.1V299c0-4.5-3.6-8.1-8.1-8.1H134.3z"/>
<path class="st0" d="M280.5,223.3h11.2v66.7h-11.2V223.3z"/>
<path class="st0" d="M303.8,246.4H315v4.3c2.6-3.3,6.3-5.2,10.6-5.2c5,0,9.4,2.6,12.5,6.9c2.9-4.2,7.3-6.9,13-6.9
	c9.2,0,16.1,7.4,16.1,16.9v27.6h-11.2v-26.8c0-4.3-3.1-7.7-7.2-7.7c-4.6,0-7.5,3.7-7.5,8.2v26.3h-11.2v-26.8c0-4.3-3.1-7.7-7.4-7.7
	c-4.5,0-7.3,3.7-7.3,8.2v26.3h-11.3V246.4z"/>
<path class="st0" d="M377.6,246.4h11.2v4.7c3.4-3.4,8.1-5.5,13.8-5.5c11.7,0,21.5,10,21.5,22.8c0,12.7-9.7,22.8-21.5,22.8
	c-5.7,0-10.4-2.1-13.8-5.5v24.7h-11.2V246.4z M412.9,268.3c0-7-5.5-12.5-12.4-12.5c-6.9,0-12.5,5.5-12.5,12.5
	c0,7,5.6,12.5,12.5,12.5C407.4,280.7,412.9,275.2,412.9,268.3z"/>
<path class="st0" d="M429.7,268.3c0-12.6,9.9-22.8,23.1-22.8c13,0,23,10,23,22.8c0,12.7-10,22.8-23,22.8
	C439.6,290.9,429.7,280.9,429.7,268.3z M464.9,268.3c0-6.9-5.4-12.2-12.1-12.2c-7,0-12.4,5.4-12.4,12.2c0,6.9,5.4,12.3,12.4,12.3
	C459.5,280.5,464.9,275.1,464.9,268.3z"/>
<path class="st0" d="M480.3,284.4l6.3-7.7c3.1,3.2,7.1,5.1,10.5,5.1c3.4,0,5.5-1.8,5.5-4.2c0-3.1-3.5-3.8-8.8-5.6
	c-6.8-2.4-12.5-5.4-12.5-13.1c0-8.9,7.6-13.4,16-13.4c6.3,0,11.6,2.5,15,6.2l-6.6,6.7c-2.5-2.5-5.8-4.2-8.8-4.2
	c-2.8,0-4.6,1.4-4.6,3.7c0,3,3.1,3.8,8.2,5.4c6.5,2.2,13.1,5.2,13.1,13.9c0,8.9-6.9,13.7-16.3,13.7
	C490,290.9,483.9,287.9,480.3,284.4z"/>
<path class="st0" d="M517.6,284.4l6.3-7.7c3.1,3.2,7.1,5.1,10.5,5.1c3.4,0,5.5-1.8,5.5-4.2c0-3.1-3.5-3.8-8.8-5.6
	c-6.8-2.4-12.5-5.4-12.5-13.1c0-8.9,7.6-13.4,16-13.4c6.3,0,11.6,2.5,15,6.2l-6.6,6.7c-2.5-2.5-5.8-4.2-8.8-4.2
	c-2.8,0-4.6,1.4-4.6,3.7c0,3,3.1,3.8,8.2,5.4c6.5,2.2,13.1,5.2,13.1,13.9c0,8.9-6.9,13.7-16.3,13.7
	C527.2,290.9,521.1,287.9,517.6,284.4z"/>
<path class="st0" d="M558.4,232.1c0-3.6,3.1-6.5,6.6-6.5c3.6,0,6.6,2.9,6.6,6.5s-3,6.5-6.6,6.5S558.4,235.8,558.4,232.1z
	 M559.5,246.4h11.1v43.7h-11.1V246.4z"/>
<path class="st0" d="M593,284.4l-0.3,5.6h-10.5v-66.7h11.2v28c3.3-4,8.6-6,13.9-6c12.2,0,21.8,10.1,21.8,22.9
	c0,12.7-9.6,22.9-21.8,22.9C601.4,290.9,596.3,288.5,593,284.4z M618,268.2c0-7.2-5.4-12.7-12.5-12.7c-7,0-12.5,5.5-12.5,12.7
	c0,7.2,5.5,12.8,12.5,12.8C612.6,281,618,275.3,618,268.2z"/>
<path class="st0" d="M638,223.3h11.2v66.7H638V223.3z"/>
<path class="st0" d="M703.5,270.2h-34.3c0.9,7.1,5.9,11.7,12.3,11.7c4.6,0,8.9-2.3,11.2-6.3l9,3.7c-3.5,7.2-10.9,11.7-20,11.7
	c-13.8,0-23.4-10-23.4-22.8c0-12.7,9.7-22.8,23-22.8c12.6,0,22.2,8.9,22.4,22.3L703.5,270.2z M670.4,261.7h21.4
	c-1.8-4.4-5.2-7.2-10.4-7.2C676,254.4,672.3,257.2,670.4,261.7z"/>
<path class="st0" d="M280.5,308.1H322v11.3h-30.2v16.4h26.8v11.3h-26.8v27.7h-11.2V308.1z"/>
<path class="st0" d="M329.1,316.9c0-3.6,3.1-6.5,6.6-6.5c3.6,0,6.6,2.9,6.6,6.5s-3,6.5-6.6,6.5C332.1,323.4,329.1,320.6,329.1,316.9
	z M330.2,331.2h11.1v43.7h-11.1V331.2z"/>
<path class="st0" d="M353,331.2h11.2v4c3.1-3.2,7.2-4.9,11.6-4.9c8.8,0,15.6,7.2,15.6,16.3V375h-11.2v-26.9c0-4.6-3.4-7.8-7.9-7.8
	c-4.7,0-8.1,3.3-8.2,7.8V375h-11.2L353,331.2L353,331.2z"/>
<path class="st0" d="M399.2,353c0-12.6,9.8-22.9,21.5-22.9c6.2,0,11,2.3,14.2,6v-5h11.2v43.7h-10.5l-0.3-5.6
	c-3.2,4.1-8.2,6.5-14.7,6.5C408.9,375.7,399.2,365.7,399.2,353z M435.2,353c0-7-5.4-12.5-12.4-12.5c-7,0-12.5,5.5-12.5,12.5
	s5.4,12.6,12.5,12.6C429.8,365.5,435.2,359.9,435.2,353z"/>
<path class="st0" d="M457.8,331.2H469v4c3.1-3.2,7.2-4.9,11.6-4.9c8.8,0,15.6,7.2,15.6,16.3V375H485v-26.9c0-4.6-3.4-7.8-7.9-7.8
	c-4.7,0-8.1,3.3-8.2,7.8V375h-11.2L457.8,331.2L457.8,331.2z"/>
<path class="st0" d="M504.1,353.1c0-12.6,9.9-22.8,23.1-22.8c3.2,0,6.5,0.7,9.2,1.9v12.5c-2.2-2.6-5.4-4.2-9.2-4.2
	c-7.1,0-12.3,5.5-12.3,12.5c0,7,5.1,12.4,12.3,12.4c3.8,0,7.1-1.6,9.2-4.2v12.6c-2.8,1.2-6,1.9-9.2,1.9
	C514,375.7,504.1,365.7,504.1,353.1z"/>
<path class="st0" d="M588.3,355h-34.3c0.9,7.1,5.9,11.7,12.3,11.7c4.6,0,8.9-2.3,11.2-6.3l9,3.7c-3.5,7.2-10.9,11.7-20,11.7
	c-13.8,0-23.4-10-23.4-22.8c0-12.7,9.7-22.8,23-22.8c12.6,0,22.2,8.9,22.4,22.3L588.3,355z M555,346.5h21.4
	c-1.8-4.4-5.2-7.2-10.4-7.2C560.7,339.2,556.9,342,555,346.5z"/>
</svg>
