<svg width="24" height="24" viewBox="0 0 24 24" fill="none" xmlns="http://www.w3.org/2000/svg">
<path d="M20.0062 2.89453C20.31 2.59079 20.8023 2.59079 21.1061 2.89453C21.4098 3.19827 21.4098 3.69061 21.1061 3.99435L3.99474 21.1055C3.69099 21.4092 3.19864 21.4092 2.8949 21.1055C2.59115 20.8017 2.59115 20.3094 2.8949 20.0056L10.6163 12.2844C10.9494 11.9512 11.116 11.7846 11.1273 11.6416C11.1371 11.5175 11.0868 11.3962 10.9922 11.3154C10.8831 11.2222 10.6475 11.2222 10.1763 11.2222H3.91145C3.47585 11.2222 3.25805 11.2222 3.09167 11.1374C2.94532 11.0628 2.82634 10.9439 2.75177 10.7975C2.66699 10.6311 2.66699 10.4133 2.66699 9.97774V3.91107C2.66699 3.47547 2.66699 3.25768 2.75177 3.0913C2.82634 2.94495 2.94532 2.82597 3.09167 2.7514C3.25805 2.66663 3.47585 2.66663 3.91145 2.66663H9.9782C10.4138 2.66663 10.6316 2.66663 10.798 2.7514C10.9443 2.82597 11.0633 2.94495 11.1379 3.0913C11.2227 3.25768 11.2227 3.47547 11.2227 3.91107V6.9444C11.2227 8.69121 13.3347 9.56602 14.5698 8.33084L20.0062 2.89453Z" fill="#0F0F0F"/>
<path d="M4.22257 20.5555C4.22257 20.9851 3.87434 21.3333 3.44478 21.3333C3.01522 21.3333 2.66699 20.9851 2.66699 20.5555C2.66699 20.126 3.01522 19.7777 3.44478 19.7777C3.87434 19.7777 4.22257 20.126 4.22257 20.5555Z" fill="#0F0F0F"/>
<path d="M21.3339 3.4444C21.3339 3.87396 20.9857 4.22218 20.5561 4.22218C20.1266 4.22218 19.7783 3.87396 19.7783 3.4444C19.7783 3.01485 20.1266 2.66663 20.5561 2.66663C20.9857 2.66663 21.3339 3.01485 21.3339 3.4444Z" fill="#0F0F0F"/>
<path d="M3.99474 21.1055C3.69099 21.4092 3.19864 21.4092 2.8949 21.1055C2.59115 20.8017 2.59115 20.3094 2.8949 20.0056L20.0062 2.89453C20.31 2.59079 20.8023 2.59079 21.1061 2.89453C21.4098 3.19827 21.4098 3.69061 21.1061 3.99435L13.3843 11.7155C13.0512 12.0486 12.8846 12.2152 12.8733 12.3583C12.8635 12.4824 12.9138 12.6036 13.0084 12.6845C13.1175 12.7777 13.3531 12.7777 13.8243 12.7777L20.0891 12.7777C20.5247 12.7777 20.7425 12.7777 20.9089 12.8624C21.0553 12.937 21.1743 13.056 21.2488 13.2023C21.3336 13.3687 21.3336 13.5865 21.3336 14.0221V20.0888C21.3336 20.5244 21.3336 20.7422 21.2488 20.9085C21.1743 21.0549 21.0553 21.1739 20.9089 21.2484C20.7425 21.3332 20.5247 21.3332 20.0891 21.3332H14.0224C13.5868 21.3332 13.369 21.3332 13.2026 21.2484C13.0563 21.1739 12.9373 21.0549 12.8627 20.9085C12.7779 20.7422 12.7779 20.5244 12.7779 20.0888V17.0554C12.7779 15.3086 10.6659 14.4338 9.43075 15.669L3.99474 21.1055Z" fill="#0F0F0F"/>
<path d="M19.7783 3.4444C19.7783 3.01485 20.1266 2.66663 20.5561 2.66663C20.9857 2.66663 21.3339 3.01485 21.3339 3.4444C21.3339 3.87396 20.9857 4.22218 20.5561 4.22218C20.1266 4.22218 19.7783 3.87396 19.7783 3.4444Z" fill="#0F0F0F"/>
<path d="M2.66699 20.5555C2.66699 20.126 3.01522 19.7777 3.44478 19.7777C3.87434 19.7777 4.22257 20.126 4.22257 20.5555C4.22257 20.9851 3.87434 21.3333 3.44478 21.3333C3.01522 21.3333 2.66699 20.9851 2.66699 20.5555Z" fill="#0F0F0F"/>
</svg>
