<svg width="160" height="160" viewBox="0 0 160 160" fill="none" xmlns="http://www.w3.org/2000/svg">
<path d="M160 0H0V160H160V0Z" fill="white"/>
<path d="M37.694 68.204C37.834 69.156 38.325 70.018 39.068 70.62C39.932 71.233 40.974 71.536 42.029 71.481C42.688 71.493 43.343 71.376 43.959 71.138C44.474 70.942 44.931 70.616 45.286 70.191C45.602 69.812 45.775 69.331 45.773 68.836C45.782 68.567 45.733 68.299 45.63 68.051C45.526 67.803 45.371 67.58 45.175 67.398C44.735 67.003 44.224 66.698 43.669 66.498C43.067 66.272 42.222 66.015 41.145 65.719C39.82 65.389 38.517 64.971 37.247 64.468C36.211 64.037 35.302 63.345 34.607 62.458C33.873 61.544 33.507 60.314 33.507 58.769C33.501 57.528 33.891 56.318 34.618 55.317C35.392 54.251 36.432 53.41 37.633 52.882C38.954 52.285 40.388 51.984 41.836 52.002C43.275 51.975 44.703 52.253 46.028 52.82C47.18 53.311 48.192 54.085 48.973 55.072C49.258 55.435 49.506 55.827 49.714 56.24C50.172 57.199 50.397 58.254 50.37 59.318H45.688C45.554 58.388 45.087 57.54 44.376 56.934C43.608 56.323 42.65 56.011 41.674 56.053C41.072 56.041 40.473 56.146 39.91 56.361C39.447 56.538 39.039 56.837 38.729 57.226C38.452 57.592 38.304 58.04 38.308 58.5C38.3 58.752 38.347 59.002 38.445 59.233C38.543 59.465 38.69 59.672 38.876 59.84C39.3 60.216 39.796 60.5 40.334 60.674C40.919 60.879 41.728 61.124 42.762 61.41C44.119 61.737 45.45 62.168 46.742 62.7C47.802 63.164 48.731 63.889 49.443 64.807C50.215 65.766 50.601 67.064 50.601 68.703C50.61 69.961 50.202 71.185 49.443 72.182C48.629 73.256 47.553 74.1 46.321 74.633C44.935 75.247 43.434 75.554 41.921 75.532C39.481 75.532 37.464 74.955 35.869 73.799C35.063 73.248 34.386 72.524 33.889 71.679C33.287 70.624 32.98 69.423 33.001 68.204H37.694Z" fill="#28292D"/>
<path d="M58.3019 74.8861V56.6011H51.2849V52.5291H70.0599V56.5861H63.0189V74.8711L58.3019 74.8861Z" fill="#28292D"/>
<path d="M98.7089 74.8861V56.5891H91.6909V52.5291H110.466V56.5731H103.426V74.8711L98.7089 74.8861Z" fill="#28292D"/>
<path d="M112.947 74.8861V52.5291H128.202V56.5731H117.629V61.6781H127.874V65.7141H117.629V70.826H128.202V74.8861H112.947Z" fill="#28292D"/>
<path d="M44.526 84.6431H39.832V107H44.526V84.6431Z" fill="#28292D"/>
<path d="M48.724 107L44.5291 84.6431H48.849L53.01 107H52.567L56.762 84.6431H60.957L56.732 107H48.724Z" fill="#28292D"/>
<path d="M65.6491 84.6431H60.9551V107H65.6491V84.6431Z" fill="#28292D"/>
<path d="M69.3379 107V84.6431H74.0319V107H69.3379Z" fill="#28292D"/>
<path d="M77.7271 107V84.6431H87.124L94.159 107V84.6431H98.8481V107H89.486L82.415 84.6431V107H77.7271Z" fill="#28292D"/>
<path d="M102.74 106.999V84.644H111.974C114.098 84.618 116.192 85.125 118.05 86.115C119.826 87.057 121.301 88.448 122.316 90.137C123.352 91.863 123.886 93.826 123.861 95.82C123.887 97.814 123.353 99.779 122.316 101.507C121.301 103.195 119.826 104.586 118.05 105.529C116.192 106.518 114.098 107.025 111.974 106.999H102.74ZM111.574 102.943C112.912 102.966 114.234 102.652 115.408 102.032C116.515 101.444 117.423 100.564 118.026 99.495C118.658 98.367 118.979 97.101 118.957 95.82C118.978 94.539 118.658 93.275 118.026 92.148C117.426 91.081 116.522 90.201 115.42 89.611C114.247 88.99 112.925 88.676 111.585 88.701H107.49V102.943H111.574Z" fill="#28292D"/>
<path d="M81.0491 52.5291H76.1401L68.6741 65.9471L71.1171 70.3331L81.0491 52.5291Z" fill="#28292D"/>
<path d="M80.917 52.5291H85.826L93.293 65.9471L90.85 70.3331L80.917 52.5291Z" fill="#28292D"/>
<path d="M71.115 70.332L73.371 74.849H81.266H88.6L90.856 70.332H71.115Z" fill="#EF3F3F"/>
</svg>
